<svg aria-hidden="true" style="position: absolute; width: 0; height: 0; overflow: hidden;" version="1.1" xmlns="http://www.w3.org/2000/svg" xmlns:xlink="http://www.w3.org/1999/xlink">
<defs>
<symbol id="icon-bookmark" viewBox="0 0 18 18">
<path d="M12.6 1.8v15.3l-3.6-3.6-3.6 3.6v-15.3c0-0.498 0.527-0.918 0.9-0.9h5.4c0.62-0.018 0.9 0.402 0.9 0.9z"></path>
</symbol>
<symbol id="icon-chevron-thin-right" viewBox="0 0 18 18">
<path d="M11.925 9l-6.427-6.678c-0.241-0.243-0.241-0.636 0-0.881 0.241-0.243 0.631-0.243 0.872 0l7.047 7.117c0.241 0.244 0.241 0.638 0 0.881l-7.047 7.117c-0.241 0.244-0.631 0.243-0.872 0s-0.241-0.636 0-0.881l6.427-6.675z"></path>
</symbol>
<symbol id="icon-aircraft-take-off" viewBox="0 0 18 18">
<path d="M17.883 5.808c0.107 0.231 0.114 1.161-4.396 3.278l-4.422 2.075c-1.539 0.723-3.772 1.673-4.756 1.936-0.689 0.184-1.347-0.284-1.347-0.284s-1.985-1.777-2.513-2.177c-0.526-0.4-0.481-0.603 0.193-0.819 0.42-0.134 2.817 0.444 3.838 0.702 1.205-0.72 2.306-1.337 2.827-1.618-1.256-0.93-3.607-2.666-4.357-3.195-0.719-0.508 0.009-0.691 0.009-0.691 0.331-0.089 1.046-0.205 1.406-0.13 2.449 0.512 6.537 1.864 6.85 1.967 0.749-0.392 1.915-0.983 2.63-1.318 1.867-0.877 3.894-0.033 4.037 0.274z"></path>
</symbol>
<symbol id="icon-chat" viewBox="0 0 18 18">
<path d="M5.22 10.98v-5.58h-3.42c-0.99 0-1.8 0.81-1.8 1.8v5.4c0 0.99 0.81 1.8 1.8 1.8h0.9v2.7l2.7-2.7h4.5c0.99 0 1.8-0.81 1.8-1.8v-1.638c-0.058 0.013-0.119 0.019-0.18 0.019l-6.3-0.001zM16.2 0.9h-8.1c-0.99 0-1.8 0.81-1.8 1.8v7.2h6.3l2.7 2.7v-2.7h0.9c0.99 0 1.8-0.809 1.8-1.8v-5.4c0-0.99-0.81-1.8-1.8-1.8z"></path>
</symbol>
<symbol id="icon-home" viewBox="0 0 18 18">
<path d="M16.805 9.9h-1.505v5.4c0 0.401-0.175 0.9-0.9 0.9h-3.6v-5.4h-3.6v5.4h-3.6c-0.725 0-0.9-0.5-0.9-0.9v-5.4h-1.505c-0.538 0-0.423-0.292-0.054-0.673l7.222-7.229c0.175-0.182 0.406-0.272 0.637-0.281 0.231 0.009 0.462 0.098 0.637 0.281l7.221 7.228c0.37 0.382 0.485 0.674-0.053 0.674z"></path>
</symbol>
<symbol id="icon-key" viewBox="0 0 18 18">
<path d="M15.922 4.252c-0.453-2.679-2.898-4.47-5.462-3.997s-4.73 2.534-4.278 5.215c0.096 0.577 0.367 1.48 0.687 2.128l-4.657 6.951c-0.172 0.256-0.269 0.719-0.218 1.027l0.3 1.774c0.052 0.308 0.335 0.515 0.63 0.463l1.364-0.253c0.295-0.053 0.67-0.313 0.832-0.575l1.842-2.98 0.016-0.020 1.247-0.23 2.151-3.491c0.707 0.125 1.721 0.083 2.32-0.028 2.563-0.473 3.678-3.303 3.226-5.984zM13.649 5.627c-0.706 1.053-1.426 0.311-2.433-0.427-1.007-0.736-1.921-1.19-1.217-2.243s2.093-1.309 3.102-0.571c1.008 0.737 1.252 2.189 0.547 3.242z"></path>
</symbol>
<symbol id="icon-location-pin" viewBox="0 0 18 18">
<path d="M9 1.808c-2.486 0-4.5 2.006-4.5 4.491 0 4.297 4.5 9.9 4.5 9.9s4.5-5.604 4.5-9.9c0-2.484-2.014-4.491-4.5-4.491zM9 8.784c-1.343 0-2.43-1.088-2.43-2.43s1.087-2.43 2.43-2.43c1.341 0 2.429 1.088 2.429 2.43s-1.088 2.43-2.429 2.43z"></path>
</symbol>
<symbol id="icon-magnifying-glass" viewBox="0 0 18 18">
<path d="M15.79 13.92l-3.401-3.401c0.513-0.841 0.808-1.832 0.808-2.889 0-3.075-2.665-5.739-5.74-5.739s-5.567 2.492-5.567 5.567c0 3.074 2.665 5.739 5.739 5.739 1.023 0 1.98-0.278 2.804-0.76l3.419 3.421c0.335 0.334 0.877 0.334 1.211 0l0.849-0.849c0.334-0.334 0.212-0.756-0.122-1.090zM3.604 7.458c0-2.129 1.725-3.855 3.854-3.855s4.027 1.896 4.027 4.027c0 2.128-1.726 3.855-3.855 3.855s-4.026-1.898-4.026-4.027z"></path>
</symbol>
<symbol id="icon-map" viewBox="0 0 18 18">
<path d="M17.502 3.346l-5.4-2.7c-0.253-0.127-0.552-0.127-0.805 0l-5.067 2.533-5.045-1.682c-0.275-0.092-0.576-0.046-0.811 0.124s-0.373 0.441-0.373 0.73v11.701c0 0.341 0.193 0.652 0.498 0.805l5.4 2.7c0.127 0.063 0.265 0.095 0.402 0.095s0.276-0.032 0.402-0.095l5.067-2.533 5.045 1.682c0.274 0.090 0.576 0.044 0.811-0.125s0.373-0.441 0.373-0.729v-11.702c0.001-0.341-0.192-0.653-0.497-0.805zM7.2 4.708l3.6-1.8v10.587l-3.6 1.8v-10.587zM1.8 3.6l3.6 1.2v10.495l-3.6-1.8v-9.895zM16.2 14.604l-3.6-1.201v-10.496l3.6 1.8v9.896z"></path>
</symbol>
<symbol id="icon-star" viewBox="0 0 18 18">
<path d="M9 1.17l2.149 6.050h5.771l-4.709 3.553 1.684 6.235-4.895-3.739-4.894 3.739 1.683-6.235-4.71-3.553h5.771l2.15-6.050z"></path>
</symbol>
</defs>
</svg>
