<!-- Generated by IcoMoon.io -->
<svg version="1.1" xmlns="http://www.w3.org/2000/svg" width="18" height="18" viewBox="0 0 18 18">
<path d="M17.883 5.808c0.107 0.231 0.114 1.161-4.396 3.278l-4.422 2.075c-1.539 0.723-3.772 1.673-4.756 1.936-0.689 0.184-1.347-0.284-1.347-0.284s-1.985-1.777-2.513-2.177c-0.526-0.4-0.481-0.603 0.193-0.819 0.42-0.134 2.817 0.444 3.838 0.702 1.205-0.72 2.306-1.337 2.827-1.618-1.256-0.93-3.607-2.666-4.357-3.195-0.719-0.508 0.009-0.691 0.009-0.691 0.331-0.089 1.046-0.205 1.406-0.13 2.449 0.512 6.537 1.864 6.85 1.967 0.749-0.392 1.915-0.983 2.63-1.318 1.867-0.877 3.894-0.033 4.037 0.274z"></path>
</svg>
