<!-- Generated by IcoMoon.io -->
<svg version="1.1" xmlns="http://www.w3.org/2000/svg" width="18" height="18" viewBox="0 0 18 18">
<path d="M15.922 4.252c-0.453-2.679-2.898-4.47-5.462-3.997s-4.73 2.534-4.278 5.215c0.096 0.577 0.367 1.48 0.687 2.128l-4.657 6.951c-0.172 0.256-0.269 0.719-0.218 1.027l0.3 1.774c0.052 0.308 0.335 0.515 0.63 0.463l1.364-0.253c0.295-0.053 0.67-0.313 0.832-0.575l1.842-2.98 0.016-0.020 1.247-0.23 2.151-3.491c0.707 0.125 1.721 0.083 2.32-0.028 2.563-0.473 3.678-3.303 3.226-5.984zM13.649 5.627c-0.706 1.053-1.426 0.311-2.433-0.427-1.007-0.736-1.921-1.19-1.217-2.243s2.093-1.309 3.102-0.571c1.008 0.737 1.252 2.189 0.547 3.242z"></path>
</svg>
