<!-- Generated by IcoMoon.io -->
<svg version="1.1" xmlns="http://www.w3.org/2000/svg" width="18" height="18" viewBox="0 0 18 18">
<path d="M15.79 13.92l-3.401-3.401c0.513-0.841 0.808-1.832 0.808-2.889 0-3.075-2.665-5.739-5.74-5.739s-5.567 2.492-5.567 5.567c0 3.074 2.665 5.739 5.739 5.739 1.023 0 1.98-0.278 2.804-0.76l3.419 3.421c0.335 0.334 0.877 0.334 1.211 0l0.849-0.849c0.334-0.334 0.212-0.756-0.122-1.090zM3.604 7.458c0-2.129 1.725-3.855 3.854-3.855s4.027 1.896 4.027 4.027c0 2.128-1.726 3.855-3.855 3.855s-4.026-1.898-4.026-4.027z"></path>
</svg>
