<!-- Generated by IcoMoon.io -->
<svg version="1.1" xmlns="http://www.w3.org/2000/svg" width="18" height="18" viewBox="0 0 18 18">
<path d="M17.502 3.346l-5.4-2.7c-0.253-0.127-0.552-0.127-0.805 0l-5.067 2.533-5.045-1.682c-0.275-0.092-0.576-0.046-0.811 0.124s-0.373 0.441-0.373 0.73v11.701c0 0.341 0.193 0.652 0.498 0.805l5.4 2.7c0.127 0.063 0.265 0.095 0.402 0.095s0.276-0.032 0.402-0.095l5.067-2.533 5.045 1.682c0.274 0.090 0.576 0.044 0.811-0.125s0.373-0.441 0.373-0.729v-11.702c0.001-0.341-0.192-0.653-0.497-0.805zM7.2 4.708l3.6-1.8v10.587l-3.6 1.8v-10.587zM1.8 3.6l3.6 1.2v10.495l-3.6-1.8v-9.895zM16.2 14.604l-3.6-1.201v-10.496l3.6 1.8v9.896z"></path>
</svg>
